<?xml version="1.0" encoding="iso-8859-1"?>
<!-- Generator: Adobe Illustrator 19.0.0, SVG Export Plug-In . SVG Version: 6.00 Build 0)  -->
<svg version="1.1" xmlns="http://www.w3.org/2000/svg" xmlns:xlink="http://www.w3.org/1999/xlink" x="0px" y="0px"
	 viewBox="0 0 512 512" style="enable-background:new 0 0 512 512;" xml:space="preserve">
<g id="new_paper">
	<g id="XMLID_4251_">
		<g id="XMLID_4268_">
			<g id="XMLID_4275_">
				<linearGradient id="XMLID_2_" gradientUnits="userSpaceOnUse" x1="-16.4323" y1="593.77" x2="420.5413" y2="-100.599">
					<stop  offset="0" style="stop-color:#35FFF5"/>
					<stop  offset="1" style="stop-color:#0071BC"/>
				</linearGradient>
				<path id="XMLID_4276_" style="fill:url(#XMLID_2_);" d="M375.743,511.452H65.893c-31.629,0-57.361-25.732-57.361-57.361V8.533
					c0-4.408,3.574-7.983,7.983-7.983h319.314c4.409,0,7.983,3.574,7.983,7.983v215.536c0,4.409-3.574,7.983-7.983,7.983
					s-7.983-3.574-7.983-7.983V16.515H24.498v437.576c0,22.826,18.57,41.395,41.395,41.395h309.85c4.409,0,7.983,3.574,7.983,7.983
					C383.726,507.878,380.152,511.452,375.743,511.452z"/>
			</g>
			<g id="XMLID_4273_">
				<linearGradient id="XMLID_3_" gradientUnits="userSpaceOnUse" x1="154.4017" y1="701.2776" x2="591.3754" y2="6.9086">
					<stop  offset="0" style="stop-color:#35FFF5"/>
					<stop  offset="1" style="stop-color:#0071BC"/>
				</linearGradient>
				<path id="XMLID_4274_" style="fill:url(#XMLID_3_);" d="M375.743,511.452c-26.411,0-47.897-21.487-47.897-47.897V224.069
					c0-4.408,3.574-7.983,7.983-7.983h120.454c4.409,0,7.983,3.574,7.983,7.983c0,4.409-3.574,7.983-7.983,7.983H343.812v231.503
					c0,17.607,14.324,31.931,31.931,31.931c17.607,0,31.931-14.325,31.931-31.931v-39.914c0-4.408,3.574-7.983,7.983-7.983
					c4.409,0,7.983,3.574,7.983,7.983v39.914C423.641,489.965,402.154,511.452,375.743,511.452z"/>
			</g>
			<g id="XMLID_4269_">
				<linearGradient id="XMLID_4_" gradientUnits="userSpaceOnUse" x1="206.2921" y1="733.9327" x2="643.2657" y2="39.5638">
					<stop  offset="0" style="stop-color:#35FFF5"/>
					<stop  offset="1" style="stop-color:#0071BC"/>
				</linearGradient>
				<path id="XMLID_4270_" style="fill:url(#XMLID_4_);" d="M415.658,432.085c-2.1,0-4.116-0.827-5.611-2.305
					c-1.517-1.5-2.371-3.545-2.371-5.678l0.005-159.645c-0.312-26.314,20.919-48.053,47.328-48.366
					c0.194-0.003,0.389-0.004,0.583-0.004c12.577,0,24.435,4.828,33.45,13.63c9.153,8.939,14.277,20.907,14.428,33.7l0,159.741
					c0,4.372-3.517,7.93-7.888,7.982l-79.829,0.944C415.721,432.085,415.689,432.085,415.658,432.085z M455.586,232.052
					c-0.13,0-0.259,0.001-0.389,0.002c-17.606,0.21-31.759,14.702-31.551,32.308l-0.005,151.662l63.863-0.756V263.511
					c-0.1-8.434-3.516-16.413-9.618-22.372C471.876,235.271,463.969,232.052,455.586,232.052z"/>
			</g>
		</g>
		<g id="XMLID_4264_">
			<linearGradient id="XMLID_5_" gradientUnits="userSpaceOnUse" x1="-95.5018" y1="544.0107" x2="341.4718" y2="-150.3583">
				<stop  offset="0" style="stop-color:#35FFF5"/>
				<stop  offset="1" style="stop-color:#0071BC"/>
			</linearGradient>
			<path id="XMLID_4265_" style="fill:url(#XMLID_5_);" d="M295.915,160.207H56.429c-4.409,0-7.983-3.574-7.983-7.983V72.395
				c0-4.408,3.574-7.983,7.983-7.983h239.485c4.409,0,7.983,3.574,7.983,7.983v79.828
				C303.898,156.632,300.324,160.207,295.915,160.207z M64.412,144.241h223.52V80.378H64.412V144.241z"/>
		</g>
		<g id="XMLID_4262_">
			<linearGradient id="XMLID_6_" gradientUnits="userSpaceOnUse" x1="-49.0243" y1="573.0739" x2="388.0143" y2="-121.3984">
				<stop  offset="0" style="stop-color:#35FFF5"/>
				<stop  offset="1" style="stop-color:#0071BC"/>
			</linearGradient>
			<path id="XMLID_4263_" style="fill:url(#XMLID_6_);" d="M296.472,216H64.969c-4.409,0-7.983-3.592-7.983-8s3.574-8,7.983-8
				h231.503c4.409,0,7.983,3.592,7.983,8S300.881,216,296.472,216z"/>
		</g>
		<g id="XMLID_4260_">
			<linearGradient id="XMLID_7_" gradientUnits="userSpaceOnUse" x1="-27.4298" y1="586.7593" x2="409.6088" y2="-107.713">
				<stop  offset="0" style="stop-color:#35FFF5"/>
				<stop  offset="1" style="stop-color:#0071BC"/>
			</linearGradient>
			<path id="XMLID_4261_" style="fill:url(#XMLID_7_);" d="M296.472,264H64.969c-4.409,0-7.983-3.591-7.983-8
				c0-4.408,3.574-8,7.983-8h231.503c4.409,0,7.983,3.592,7.983,8C304.455,260.409,300.881,264,296.472,264z"/>
		</g>
		<g id="XMLID_4258_">
			<linearGradient id="XMLID_8_" gradientUnits="userSpaceOnUse" x1="-25.8552" y1="587.8594" x2="411.201" y2="-106.6409">
				<stop  offset="0" style="stop-color:#35FFF5"/>
				<stop  offset="1" style="stop-color:#0071BC"/>
			</linearGradient>
			<path id="XMLID_4259_" style="fill:url(#XMLID_8_);" d="M240.592,312H64.969c-4.409,0-7.983-3.591-7.983-8s3.574-8,7.983-8
				h175.623c4.409,0,7.983,3.591,7.983,8S245.001,312,240.592,312z"/>
		</g>
		<g id="XMLID_4256_">
			<linearGradient id="XMLID_9_" gradientUnits="userSpaceOnUse" x1="-7.8591" y1="599.2628" x2="429.1972" y2="-95.2376">
				<stop  offset="0" style="stop-color:#35FFF5"/>
				<stop  offset="1" style="stop-color:#0071BC"/>
			</linearGradient>
			<path id="XMLID_4257_" style="fill:url(#XMLID_9_);" d="M240.592,352H64.969c-4.409,0-7.983-3.591-7.983-8s3.574-8,7.983-8
				h175.623c4.409,0,7.983,3.591,7.983,8S245.001,352,240.592,352z"/>
		</g>
		<g id="XMLID_4252_">
			<linearGradient id="XMLID_10_" gradientUnits="userSpaceOnUse" x1="39.4438" y1="628.9334" x2="476.4174" y2="-65.4356">
				<stop  offset="0" style="stop-color:#35FFF5"/>
				<stop  offset="1" style="stop-color:#0071BC"/>
			</linearGradient>
			<path id="XMLID_4253_" style="fill:url(#XMLID_10_);" d="M295.915,439.606H56.429c-4.409,0-7.983-3.574-7.983-7.983v-39.914
				c0-4.408,3.574-7.983,7.983-7.983h239.485c4.409,0,7.983,3.574,7.983,7.983v39.914
				C303.898,436.032,300.324,439.606,295.915,439.606z M64.412,423.641h223.52v-23.949H64.412V423.641z"/>
		</g>
	</g>
</g>
<g id="Layer_1">
</g>
</svg>
