<?xml version="1.0" encoding="iso-8859-1"?>
<!-- Generator: Adobe Illustrator 19.0.0, SVG Export Plug-In . SVG Version: 6.00 Build 0)  -->
<svg version="1.1" xmlns="http://www.w3.org/2000/svg" xmlns:xlink="http://www.w3.org/1999/xlink" x="0px" y="0px"
	 viewBox="0 0 512 512" style="enable-background:new 0 0 512 512;" xml:space="preserve">
<g id="tag">
	<g id="XMLID_3041_">
		<g id="XMLID_3052_">
			<linearGradient id="XMLID_2_" gradientUnits="userSpaceOnUse" x1="17.8201" y1="540.3874" x2="502.6812" y2="-46.2347">
				<stop  offset="0" style="stop-color:#35FFF5"/>
				<stop  offset="1" style="stop-color:#0071BC"/>
			</linearGradient>
			<path id="XMLID_3053_" style="fill:url(#XMLID_2_);" d="M193.319,510.943c-10.296,0-20.591-3.918-28.429-11.756l0,0
				L12.815,347.113c-15.676-15.676-15.676-41.183,0-56.859L255.302,47.766c1.658-1.656,3.96-2.497,6.295-2.311l182.721,14.923
				c3.896,0.319,6.988,3.411,7.307,7.307l14.923,182.721c0.19,2.336-0.655,4.637-2.312,6.295L221.748,499.187
				C213.91,507.025,203.615,510.943,193.319,510.943z M176.179,487.897c9.451,9.45,24.828,9.45,34.28,0l239.874-239.874
				l-14.07-172.283L263.979,61.668L24.104,301.543c-9.451,9.45-9.451,24.828,0,34.279L176.179,487.897z"/>
		</g>
		<g id="XMLID_3048_">
			<linearGradient id="XMLID_3_" gradientUnits="userSpaceOnUse" x1="30.4416" y1="550.6126" x2="515.3027" y2="-36.0095">
				<stop  offset="0" style="stop-color:#35FFF5"/>
				<stop  offset="1" style="stop-color:#0071BC"/>
			</linearGradient>
			<path id="XMLID_3049_" style="fill:url(#XMLID_3_);" d="M358.272,199.209c-11.588,0-23.175-4.41-31.997-13.231
				c-8.547-8.547-13.254-19.91-13.254-31.998c0-12.086,4.707-23.451,13.254-31.998c17.643-17.642,46.351-17.642,63.994,0
				c17.643,17.645,17.643,46.353,0,63.995l0,0C381.448,194.798,369.86,199.209,358.272,199.209z M358.272,124.709
				c-7.5,0-14.998,2.853-20.708,8.564c-5.531,5.531-8.577,12.885-8.577,20.707c0,7.823,3.046,15.176,8.577,20.707
				c11.419,11.419,29.997,11.419,41.416,0c11.418-11.418,11.418-29.997,0-41.416C373.272,127.564,365.771,124.709,358.272,124.709z"
				/>
		</g>
		<g id="XMLID_3046_">
			<linearGradient id="XMLID_4_" gradientUnits="userSpaceOnUse" x1="39.2693" y1="557.9089" x2="524.1304" y2="-28.7131">
				<stop  offset="0" style="stop-color:#35FFF5"/>
				<stop  offset="1" style="stop-color:#0071BC"/>
			</linearGradient>
			<path id="XMLID_3047_" style="fill:url(#XMLID_4_);" d="M384.625,135.61c-2.043,0-4.086-0.78-5.645-2.338
				c-3.118-3.118-3.118-8.172,0-11.29L497.566,3.396c3.117-3.116,8.172-3.116,11.289,0c3.118,3.118,3.118,8.172,0,11.29
				L390.27,133.272C388.711,134.83,386.668,135.61,384.625,135.61z"/>
		</g>
		<g id="XMLID_3044_">
			<linearGradient id="XMLID_5_" gradientUnits="userSpaceOnUse" x1="16.1837" y1="538.828" x2="501.0449" y2="-47.7941">
				<stop  offset="0" style="stop-color:#35FFF5"/>
				<stop  offset="1" style="stop-color:#0071BC"/>
			</linearGradient>
			<path id="XMLID_3045_" style="fill:url(#XMLID_5_);" d="M318.744,399.135c-2.043,0-4.086-0.78-5.645-2.338L115.455,199.154
				c-3.118-3.118-3.118-8.172,0-11.29c3.118-3.116,8.172-3.116,11.289,0l197.644,197.643c3.118,3.118,3.118,8.172,0,11.29
				C322.83,398.355,320.787,399.135,318.744,399.135z"/>
		</g>
		<g id="XMLID_3042_">
			<linearGradient id="XMLID_6_" gradientUnits="userSpaceOnUse" x1="11.4311" y1="534.8998" x2="496.2922" y2="-51.7223">
				<stop  offset="0" style="stop-color:#35FFF5"/>
				<stop  offset="1" style="stop-color:#0071BC"/>
			</linearGradient>
			<path id="XMLID_3043_" style="fill:url(#XMLID_6_);" d="M272.627,445.252c-2.043,0-4.086-0.78-5.645-2.338L69.338,245.271
				c-3.118-3.118-3.118-8.172,0-11.29c3.117-3.116,8.172-3.116,11.289,0l197.644,197.644c3.118,3.118,3.118,8.172,0,11.29
				C276.713,444.473,274.67,445.252,272.627,445.252z"/>
		</g>
	</g>
</g>
<g id="Layer_1">
</g>
</svg>
