<?xml version="1.0" encoding="iso-8859-1"?>
<!-- Generator: Adobe Illustrator 19.0.0, SVG Export Plug-In . SVG Version: 6.00 Build 0)  -->
<svg version="1.1" xmlns="http://www.w3.org/2000/svg" xmlns:xlink="http://www.w3.org/1999/xlink" x="0px" y="0px"
	 viewBox="0 0 512 512" style="enable-background:new 0 0 512 512;" xml:space="preserve">
<g id="user">
	<g id="XMLID_3804_">
		<g id="XMLID_3819_">
			<linearGradient id="XMLID_2_" gradientUnits="userSpaceOnUse" x1="18.1816" y1="511.6461" x2="464.2679" y2="32.6273">
				<stop  offset="0" style="stop-color:#35FFF5"/>
				<stop  offset="1" style="stop-color:#0071BC"/>
			</linearGradient>
			<path id="XMLID_3820_" style="fill:url(#XMLID_2_);" d="M256.251,510.953c-68.1,0-132.124-26.52-180.278-74.674
				C27.818,388.125,1.299,324.101,1.299,256.001c0-68.1,26.52-132.124,74.674-180.278C124.127,27.568,188.151,1.049,256.251,1.049
				s132.124,26.52,180.278,74.674c48.154,48.154,74.674,112.178,74.674,180.278c0,68.1-26.52,132.124-74.674,180.279
				C388.375,484.433,324.351,510.953,256.251,510.953z M256.251,17.014c-131.778,0-238.987,107.209-238.987,238.987
				s107.209,238.987,238.987,238.987s238.987-107.209,238.987-238.987S388.029,17.014,256.251,17.014z"/>
		</g>
		<g id="XMLID_3815_">
			<linearGradient id="XMLID_3_" gradientUnits="userSpaceOnUse" x1="18.1815" y1="511.6461" x2="464.2678" y2="32.6272">
				<stop  offset="0" style="stop-color:#35FFF5"/>
				<stop  offset="1" style="stop-color:#0071BC"/>
			</linearGradient>
			<path id="XMLID_3816_" style="fill:url(#XMLID_3_);" d="M256.251,476.527c-58.905,0-114.284-22.939-155.936-64.591
				c-41.652-41.652-64.59-97.031-64.59-155.935s22.939-114.284,64.59-155.935c41.652-41.652,97.031-64.591,155.936-64.591
				s114.284,22.939,155.936,64.591c41.652,41.652,64.59,97.031,64.59,155.935s-22.939,114.284-64.59,155.935
				C370.535,453.588,315.156,476.527,256.251,476.527z M256.251,51.44c-112.795,0-204.561,91.765-204.561,204.561
				c0,112.795,91.765,204.561,204.561,204.561s204.561-91.766,204.561-204.561C460.812,143.206,369.046,51.44,256.251,51.44z"/>
		</g>
		<g id="XMLID_3813_">
			<linearGradient id="XMLID_4_" gradientUnits="userSpaceOnUse" x1="80.7402" y1="571.123" x2="527.4715" y2="91.4116">
				<stop  offset="0" style="stop-color:#35FFF5"/>
				<stop  offset="1" style="stop-color:#0071BC"/>
			</linearGradient>
			<path id="XMLID_3814_" style="fill:url(#XMLID_4_);" d="M383,434.118c-4.409,0-8-3.574-8-7.983v-34.426
				c0-32.055-12.164-62.126-34.7-84.673c-22.624-22.615-53.032-35.07-84.926-35.07C189.209,271.967,135,325.683,135,391.709v34.426
				c0,4.408-3.591,7.983-8,7.983s-8-3.574-8-7.983v-34.426c0-74.829,61.512-135.708,136.48-135.708
				c36.158,0,70.224,14.116,95.866,39.747C376.898,321.312,391,355.391,391,391.709v34.426C391,430.544,387.409,434.118,383,434.118
				z"/>
		</g>
		<g id="XMLID_3809_">
			<linearGradient id="XMLID_5_" gradientUnits="userSpaceOnUse" x1="-5.7064" y1="489.4004" x2="440.3799" y2="10.3816">
				<stop  offset="0" style="stop-color:#35FFF5"/>
				<stop  offset="1" style="stop-color:#0071BC"/>
			</linearGradient>
			<path id="XMLID_3810_" style="fill:url(#XMLID_5_);" d="M256.251,271.967c-35.214,0-63.863-28.649-63.863-63.863
				s28.649-63.863,63.863-63.863s63.863,28.649,63.863,63.863S291.465,271.967,256.251,271.967z M256.251,160.207
				c-26.411,0-47.897,21.487-47.897,47.897s21.487,47.897,47.897,47.897s47.897-21.487,47.897-47.897
				S282.662,160.207,256.251,160.207z"/>
		</g>
		<g id="XMLID_3807_">
			<linearGradient id="XMLID_6_" gradientUnits="userSpaceOnUse" x1="62.3662" y1="553.6793" x2="508.53" y2="74.5772">
				<stop  offset="0" style="stop-color:#35FFF5"/>
				<stop  offset="1" style="stop-color:#0071BC"/>
			</linearGradient>
			<path id="XMLID_3808_" style="fill:url(#XMLID_6_);" d="M183,464.054c-4.409,0-8-3.574-8-7.983v-63.863
				c0-4.409,3.591-7.983,8-7.983s8,3.574,8,7.983v63.863C191,460.48,187.409,464.054,183,464.054z"/>
		</g>
		<g id="XMLID_3805_">
			<linearGradient id="XMLID_7_" gradientUnits="userSpaceOnUse" x1="139.6178" y1="625.3555" x2="585.7816" y2="146.2534">
				<stop  offset="0" style="stop-color:#35FFF5"/>
				<stop  offset="1" style="stop-color:#0071BC"/>
			</linearGradient>
			<path id="XMLID_3806_" style="fill:url(#XMLID_7_);" d="M327,464.054c-4.409,0-8-3.574-8-7.983v-63.863
				c0-4.409,3.591-7.983,8-7.983s8,3.574,8,7.983v63.863C335,460.48,331.409,464.054,327,464.054z"/>
		</g>
	</g>
</g>
<g id="Layer_1">
</g>
</svg>
